<svg xmlns="http://www.w3.org/2000/svg" viewBox="0 0 64 64" role="img" aria-label="HUE timetable icon">
  <defs>
    <linearGradient id="bg" x1="10" y1="6" x2="54" y2="58" gradientUnits="userSpaceOnUse">
      <stop offset="0" stop-color="#fff7d6"/>
      <stop offset="0.55" stop-color="#dff6ff"/>
      <stop offset="1" stop-color="#ffe1e8"/>
    </linearGradient>
    <linearGradient id="card" x1="18" y1="16" x2="46" y2="50" gradientUnits="userSpaceOnUse">
      <stop offset="0" stop-color="#ffffff"/>
      <stop offset="1" stop-color="#f8fbff"/>
    </linearGradient>
  </defs>
  <rect width="64" height="64" rx="18" fill="url(#bg)"/>
  <path d="M15 26c0-6.1 4.9-11 11-11h12c6.1 0 11 4.9 11 11v19c0 3.9-3.1 7-7 7H22c-3.9 0-7-3.1-7-7V26Z" fill="#27364a" opacity=".12"/>
  <path d="M14 23c0-5 4-9 9-9h18c5 0 9 4 9 9v21c0 4.4-3.6 8-8 8H22c-4.4 0-8-3.6-8-8V23Z" fill="url(#card)" stroke="#27364a" stroke-width="2"/>
  <path d="M14 25h36" stroke="#27364a" stroke-width="2"/>
  <path d="M24 10v9M40 10v9" stroke="#27364a" stroke-width="4" stroke-linecap="round"/>
  <path d="M23 33h6M35 33h6M23 42h6M35 42h6" stroke="#5aa9e6" stroke-width="4" stroke-linecap="round"/>
  <path d="M49 14c3.3 0 6 2.7 6 6 0 2.9-2.1 5.4-4.9 5.9-.8 2.4-3 4.1-5.6 4.1H41" fill="none" stroke="#ff9f1c" stroke-width="3.2" stroke-linecap="round"/>
  <path d="M18 15 21 9l3 6" fill="none" stroke="#ff6b8a" stroke-width="2.5" stroke-linecap="round" stroke-linejoin="round"/>
</svg>
